<svg width="30" viewBox="0 0 30 34" fill="none" xmlns="http://www.w3.org/2000/svg"><rect x="3" y="12" width="24" height="19" fill="#0096C8"></rect><path d="M21.6667 16.5498C21.1833 16.0665 20.3833 16.0665 19.9 16.5498L12.65 23.7998L10 21.1498C9.51667 20.6665 8.71667 20.6665 8.23333 21.1498C7.75 21.6332 7.75 22.4332 8.23333 22.9165L11.4667 26.1498C12.1167 26.7998 13.1667 26.7998 13.8167 26.1498L21.65 18.3165C22.15 17.8332 22.15 17.0332 21.6667 16.5498ZM26.6667 3.99984H25V2.33317C25 1.4165 24.25 0.666504 23.3333 0.666504C22.4167 0.666504 21.6667 1.4165 21.6667 2.33317V3.99984H8.33333V2.33317C8.33333 1.4165 7.58333 0.666504 6.66667 0.666504C5.75 0.666504 5 1.4165 5 2.33317V3.99984H3.33333C1.48333 3.99984 0.0166667 5.49984 0.0166667 7.33317L0 30.6665C0 32.4998 1.48333 33.9998 3.33333 33.9998H26.6667C28.5 33.9998 30 32.4998 30 30.6665V7.33317C30 5.49984 28.5 3.99984 26.6667 3.99984ZM25 30.6665H5C4.08333 30.6665 3.33333 29.9165 3.33333 28.9998V12.3332H26.6667V28.9998C26.6667 29.9165 25.9167 30.6665 25 30.6665Z" fill="#0096C8"></path><path d="M21.7958 16.3625C21.3125 15.8792 20.5125 15.8792 20.0292 16.3625L12.7792 23.6125L10.1292 20.9625C9.64583 20.4792 8.84583 20.4792 8.3625 20.9625C7.87917 21.4458 7.87917 22.2458 8.3625 22.7292L11.5958 25.9625C12.2458 26.6125 13.2958 26.6125 13.9458 25.9625L21.7792 18.1292C22.2792 17.6458 22.2792 16.8458 21.7958 16.3625Z" fill="white"></path></svg>