<svg xmlns="http://www.w3.org/2000/svg" width="40" height="40" viewBox="0 0 40 40" fill="none"><path d="M36.5335 12.086V12.3026L34.1002 21.3026C33.8126 22.3709 33.1789 23.3135 32.2982 23.9831C31.4176 24.6526 30.3398 25.0112 29.2335 25.0026H16.4835C15.2319 25.0077 14.0238 24.5431 13.098 23.7007C12.1723 22.8583 11.5962 21.6993 11.4835 20.4526L10.4002 8.18598C10.3626 7.77044 10.1706 7.3841 9.86203 7.10329C9.55344 6.82248 9.15075 6.66762 8.73353 6.66931H5.11686C4.67483 6.66931 4.25091 6.49372 3.93835 6.18116C3.62579 5.8686 3.4502 5.44467 3.4502 5.00265C3.4502 4.56062 3.62579 4.13669 3.93835 3.82413C4.25091 3.51157 4.67483 3.33598 5.11686 3.33598H8.73353C9.98521 3.3309 11.1933 3.79547 12.119 4.63791C13.0448 5.48035 13.6209 6.63937 13.7335 7.88598V8.33598H33.2169C33.692 8.33225 34.1624 8.43014 34.5966 8.62308C35.0308 8.81601 35.4187 9.09955 35.7344 9.45466C36.05 9.80978 36.2861 10.2283 36.4268 10.6821C36.5675 11.1359 36.6096 11.6146 36.5502 12.086H36.5335Z" fill="#C0504D"></path><path d="M15.1169 36.6693C17.418 36.6693 19.2835 34.8038 19.2835 32.5026C19.2835 30.2014 17.418 28.3359 15.1169 28.3359C12.8157 28.3359 10.9502 30.2014 10.9502 32.5026C10.9502 34.8038 12.8157 36.6693 15.1169 36.6693Z" fill="#C0504D"></path><path d="M28.4499 36.6693C30.7511 36.6693 32.6165 34.8038 32.6165 32.5026C32.6165 30.2014 30.7511 28.3359 28.4499 28.3359C26.1487 28.3359 24.2832 30.2014 24.2832 32.5026C24.2832 34.8038 26.1487 36.6693 28.4499 36.6693Z" fill="#C0504D"></path></svg>