<svg width="24" height="24" viewBox="0 0 24 24" fill="none" xmlns="http://www.w3.org/2000/svg" aria-label="Cart" class=""><path d="M21.9201 7.25002V7.38002L20.4601 12.78C20.2875 13.421 19.9073 13.9866 19.3789 14.3883C18.8505 14.79 18.2038 15.0051 17.5401 15H9.89007C9.13906 15.0031 8.41423 14.7243 7.85877 14.2189C7.30332 13.7134 6.95765 13.018 6.89007 12.27L6.24007 4.91002C6.21754 4.6607 6.10232 4.4289 5.91717 4.26041C5.73202 4.09192 5.4904 3.99901 5.24007 4.00002H3.07007C2.80485 4.00002 2.5505 3.89467 2.36296 3.70713C2.17543 3.51959 2.07007 3.26524 2.07007 3.00002C2.07007 2.73481 2.17543 2.48045 2.36296 2.29292C2.5505 2.10538 2.80485 2.00002 3.07007 2.00002H5.24007C5.99107 1.99698 6.71591 2.27572 7.27136 2.78118C7.82682 3.28665 8.17248 3.98206 8.24007 4.73002V5.00002H19.9301C20.2151 4.99779 20.4974 5.05652 20.7579 5.17228C21.0184 5.28805 21.2512 5.45816 21.4406 5.67124C21.63 5.88431 21.7716 6.1354 21.8561 6.4077C21.9405 6.67999 21.9657 6.96718 21.9301 7.25002H21.9201Z" fill="#8064A2"></path><path d="M9.07007 22C10.4508 22 11.5701 20.8807 11.5701 19.5C11.5701 18.1193 10.4508 17 9.07007 17C7.68936 17 6.57007 18.1193 6.57007 19.5C6.57007 20.8807 7.68936 22 9.07007 22Z" fill="#8064A2"></path><path d="M17.0701 22C18.4508 22 19.5701 20.8807 19.5701 19.5C19.5701 18.1193 18.4508 17 17.0701 17C15.6894 17 14.5701 18.1193 14.5701 19.5C14.5701 20.8807 15.6894 22 17.0701 22Z" fill="#8064A2"></path></svg>