<svg width="32" height="32" viewBox="0 0 32 32" fill="none" xmlns="http://www.w3.org/2000/svg">
<rect width="32" height="32" rx="16" fill="#EBEDF0"/>
<g clip-path="url(#clip0_7239_113179)">
<path d="M22.2225 9H9.7781C8.06699 9 6.66699 10.4 6.66699 12.1111V19.8889C6.66699 21.6 8.06699 23 9.7781 23H22.2225C23.9337 23 25.3337 21.6 25.3337 19.8889V12.1111C25.3337 10.4 23.9337 9 22.2225 9ZM23.467 13.5111L17.3225 17.6333C16.9337 17.8667 16.467 18.0222 16.0003 18.0222C15.5337 18.0222 15.067 17.8667 14.6781 17.6333L8.53366 13.5111C8.22255 13.2778 8.14477 12.8111 8.3781 12.4222C8.61144 12.1111 9.0781 12.0333 9.46699 12.2667L15.6114 16.3889C15.8448 16.5444 16.2337 16.5444 16.467 16.3889L22.6114 12.2667C23.0003 12.0333 23.467 12.1111 23.7003 12.5C23.8559 12.8111 23.7781 13.2778 23.467 13.5111Z" fill="#6D747A"/>
</g>
<defs>
<clipPath id="clip0_7239_113179">
<rect width="18.6667" height="18.6667" fill="white" transform="translate(6.66699 6.66406)"/>
</clipPath>
</defs>
</svg>
