<svg width="16" height="16" viewBox="0 0 16 16" fill="none" xmlns="http://www.w3.org/2000/svg">
    <path fill-rule="evenodd" clip-rule="evenodd"
        d="M3.44812 8.00005C3.44812 7.48043 3.53437 6.98218 3.6885 6.51493L0.992246 4.45605C0.466746 5.52293 0.170746 6.72518 0.170746 8.00005C0.170746 9.27393 0.466496 10.4753 0.991121 11.5416L3.68587 9.47868C3.53325 9.01355 3.44812 8.51718 3.44812 8.00005Z"
        fill="#FBBC05" />
    <path fill-rule="evenodd" clip-rule="evenodd"
        d="M8.18212 3.27275C9.311 3.27275 10.3306 3.67275 11.1317 4.32725L13.4622 2C12.0421 0.763625 10.2214 0 8.18212 0C5.01612 0 2.29512 1.8105 0.992249 4.456L3.68837 6.51487C4.30962 4.62912 6.0805 3.27275 8.18212 3.27275Z"
        fill="#EA4335" />
    <path fill-rule="evenodd" clip-rule="evenodd"
        d="M8.18212 12.7275C6.08062 12.7275 4.30975 11.3711 3.6885 9.48535L0.992249 11.5439C2.29512 14.1897 5.01612 16.0002 8.18212 16.0002C10.1361 16.0002 12.0017 15.3064 13.4019 14.0064L10.8426 12.0279C10.1205 12.4827 9.21112 12.7275 8.18212 12.7275Z"
        fill="#34A853" />
    <path fill-rule="evenodd" clip-rule="evenodd"
        d="M15.8293 8.00015C15.8293 7.5274 15.7564 7.01828 15.6471 6.54565H8.18213V9.63653H12.4791C12.2643 10.6904 11.6795 11.5005 10.8426 12.0278L13.4019 14.0063C14.8726 12.6413 15.8293 10.6078 15.8293 8.00015Z"
        fill="#4285F4" />
</svg>