<svg width="32" height="32" viewBox="0 0 32 32" fill="none" xmlns="http://www.w3.org/2000/svg">
<rect width="32" height="32" rx="16" fill="#EBEDF0"/>
<path d="M15.9996 8.03906C13.8366 8.03906 13.5653 8.04823 12.7159 8.08699C11.8681 8.12569 11.2892 8.2603 10.7825 8.4572C10.2588 8.66074 9.81466 8.93307 9.37189 9.37583C8.92913 9.8186 8.6568 10.2628 8.45326 10.7865C8.25637 11.2931 8.12175 11.872 8.08305 12.7198C8.04429 13.5692 8.03516 13.8405 8.03516 16.0035C8.03516 18.1665 8.04429 18.4377 8.08305 19.2872C8.12175 20.1349 8.25637 20.7139 8.45326 21.2205C8.6568 21.7442 8.92913 22.1884 9.37189 22.6312C9.81466 23.0739 10.2588 23.3463 10.7825 23.5498C11.2892 23.7467 11.8681 23.8813 12.7159 23.92C13.5653 23.9587 13.8366 23.9679 15.9996 23.9679C18.1626 23.9679 18.4338 23.9587 19.2833 23.92C20.131 23.8813 20.71 23.7467 21.2166 23.5498C21.7403 23.3463 22.1845 23.0739 22.6273 22.6312C23.07 22.1884 23.3423 21.7442 23.5459 21.2205C23.7427 20.7139 23.8774 20.1349 23.9161 19.2872C23.9548 18.4377 23.964 18.1665 23.964 16.0035C23.964 13.8405 23.9548 13.5692 23.9161 12.7198C23.8774 11.872 23.7427 11.2931 23.5459 10.7865C23.3423 10.2628 23.07 9.8186 22.6273 9.37583C22.1845 8.93307 21.7403 8.66074 21.2166 8.4572C20.71 8.2603 20.131 8.12569 19.2833 8.08699C18.4338 8.04823 18.1626 8.03906 15.9996 8.03906ZM15.9996 9.47412C18.1262 9.47412 18.3781 9.48221 19.2179 9.52053C19.9944 9.55597 20.4161 9.68572 20.6968 9.79476C21.0685 9.93924 21.3338 10.1119 21.6125 10.3905C21.8912 10.6692 22.0638 10.9346 22.2083 11.3063C22.3174 11.5869 22.4471 12.0086 22.4825 12.7852C22.5208 13.625 22.529 13.8769 22.529 16.0035C22.529 18.1301 22.5208 18.382 22.4825 19.2218C22.4471 19.9983 22.3174 20.42 22.2083 20.7007C22.0638 21.0724 21.8912 21.3377 21.6125 21.6164C21.3338 21.8951 21.0685 22.0677 20.6968 22.2122C20.4161 22.3213 19.9944 22.451 19.2179 22.4864C18.3782 22.5247 18.1263 22.5329 15.9996 22.5329C13.8728 22.5329 13.621 22.5247 12.7813 22.4864C12.0047 22.451 11.583 22.3213 11.3024 22.2122C10.9306 22.0677 10.6653 21.8951 10.3866 21.6164C10.1079 21.3377 9.9353 21.0724 9.79085 20.7007C9.68178 20.42 9.55203 19.9983 9.51659 19.2218C9.47828 18.382 9.47018 18.1301 9.47018 16.0035C9.47018 13.8769 9.47828 13.625 9.51659 12.7852C9.55203 12.0086 9.68178 11.5869 9.79085 11.3063C9.9353 10.9346 10.1079 10.6692 10.3866 10.3905C10.6653 10.1119 10.9306 9.93924 11.3024 9.79476C11.583 9.68572 12.0047 9.55597 12.7813 9.52053C13.6211 9.48221 13.873 9.47412 15.9996 9.47412Z" fill="#6D747A"/>
<path d="M16 18.6665C14.5338 18.6665 13.3452 17.4779 13.3452 16.0117C13.3452 14.5455 14.5338 13.3569 16 13.3569C17.4662 13.3569 18.6548 14.5455 18.6548 16.0117C18.6548 17.4779 17.4662 18.6665 16 18.6665ZM16 11.9219C13.7412 11.9219 11.9102 13.7529 11.9102 16.0117C11.9102 18.2705 13.7412 20.1015 16 20.1015C18.2588 20.1015 20.0898 18.2705 20.0898 16.0117C20.0898 13.7529 18.2588 11.9219 16 11.9219Z" fill="#6D747A"/>
<path d="M21.2064 11.7448C21.2064 12.2726 20.7785 12.7005 20.2506 12.7005C19.7228 12.7005 19.2949 12.2726 19.2949 11.7448C19.2949 11.2169 19.7228 10.7891 20.2506 10.7891C20.7785 10.7891 21.2064 11.2169 21.2064 11.7448Z" fill="#6D747A"/>
</svg>
