<svg width="32" height="32" viewBox="0 0 32 32" fill="none" xmlns="http://www.w3.org/2000/svg">
<rect width="32" height="32" rx="16" fill="#EBEDF0"/>
<path d="M22.4167 7.75C22.9029 7.75 23.3692 7.94315 23.713 8.28697C24.0568 8.63079 24.25 9.0971 24.25 9.58333V22.4167C24.25 22.9029 24.0568 23.3692 23.713 23.713C23.3692 24.0568 22.9029 24.25 22.4167 24.25H9.58333C9.0971 24.25 8.63079 24.0568 8.28697 23.713C7.94315 23.3692 7.75 22.9029 7.75 22.4167V9.58333C7.75 9.0971 7.94315 8.63079 8.28697 8.28697C8.63079 7.94315 9.0971 7.75 9.58333 7.75H22.4167ZM21.9583 21.9583V17.1C21.9583 16.3074 21.6435 15.5474 21.0831 14.9869C20.5226 14.4265 19.7626 14.1117 18.97 14.1117C18.1908 14.1117 17.2833 14.5883 16.8433 15.3033V14.2858H14.2858V21.9583H16.8433V17.4392C16.8433 16.7333 17.4117 16.1558 18.1175 16.1558C18.4579 16.1558 18.7843 16.291 19.025 16.5317C19.2656 16.7724 19.4008 17.0988 19.4008 17.4392V21.9583H21.9583ZM11.3067 12.8467C11.7151 12.8467 12.1068 12.6844 12.3956 12.3956C12.6844 12.1068 12.8467 11.7151 12.8467 11.3067C12.8467 10.4542 12.1592 9.7575 11.3067 9.7575C10.8958 9.7575 10.5018 9.92072 10.2112 10.2112C9.92072 10.5018 9.7575 10.8958 9.7575 11.3067C9.7575 12.1592 10.4542 12.8467 11.3067 12.8467ZM12.5808 21.9583V14.2858H10.0417V21.9583H12.5808Z" fill="#6D747A"/>
</svg>
