<svg width="12" height="15" viewBox="0 0 12 15" fill="none" xmlns="http://www.w3.org/2000/svg"><path d="M10 5.33342H9.33335V4.00008C9.33335 2.16008 7.84002 0.666748 6.00002 0.666748C4.16002 0.666748 2.66669 2.16008 2.66669 4.00008V5.33342H2.00002C1.26669 5.33342 0.666687 5.93341 0.666687 6.66675V13.3334C0.666687 14.0667 1.26669 14.6667 2.00002 14.6667H10C10.7334 14.6667 11.3334 14.0667 11.3334 13.3334V6.66675C11.3334 5.93341 10.7334 5.33342 10 5.33342ZM6.00002 11.3334C5.26669 11.3334 4.66669 10.7334 4.66669 10.0001C4.66669 9.26675 5.26669 8.66675 6.00002 8.66675C6.73335 8.66675 7.33335 9.26675 7.33335 10.0001C7.33335 10.7334 6.73335 11.3334 6.00002 11.3334ZM4.00002 5.33342V4.00008C4.00002 2.89341 4.89335 2.00008 6.00002 2.00008C7.10669 2.00008 8.00002 2.89341 8.00002 4.00008V5.33342H4.00002Z" fill="#939CA3"></path></svg>