<svg width="32" height="32" viewBox="0 0 32 32" fill="none" xmlns="http://www.w3.org/2000/svg">
<g id="mic_black_24dp 1">
<path id="Vector" d="M15.9999 18.6641C18.2133 18.6641 19.9999 16.8774 19.9999 14.6641V6.66406C19.9999 4.45073 18.2133 2.66406 15.9999 2.66406C13.7866 2.66406 11.9999 4.45073 11.9999 6.66406V14.6641C11.9999 16.8774 13.7866 18.6641 15.9999 18.6641ZM23.8799 14.6641C23.2266 14.6641 22.6799 15.1441 22.5733 15.7974C22.0266 18.9307 19.2933 21.3307 15.9999 21.3307C12.7066 21.3307 9.97327 18.9307 9.42661 15.7974C9.31994 15.1441 8.77327 14.6641 8.11994 14.6641C7.30661 14.6641 6.66661 15.3841 6.78661 16.1841C7.43994 20.1841 10.6399 23.3174 14.6666 23.8907V26.6641C14.6666 27.3974 15.2666 27.9974 15.9999 27.9974C16.7333 27.9974 17.3333 27.3974 17.3333 26.6641V23.8907C21.3599 23.3174 24.5599 20.1841 25.2133 16.1841C25.3466 15.3841 24.6933 14.6641 23.8799 14.6641Z" fill="white"/>
</g>
</svg>
