<svg width="32" height="32" viewBox="0 0 32 32" fill="none" xmlns="http://www.w3.org/2000/svg">
<rect width="32" height="32" rx="16" fill="#EBEDF0"/>
<g clip-path="url(#clip0_7239_113159)">
<path d="M15.9993 6.6875C10.8447 6.6875 6.66602 10.8662 6.66602 16.0208C6.66602 19.9749 9.12604 23.3551 12.598 24.715C12.5164 23.9766 12.4427 22.8409 12.6305 22.0347C12.8 21.3063 13.7249 17.3954 13.7249 17.3954C13.7249 17.3954 13.4456 16.8364 13.4456 16.0097C13.4456 14.7119 14.1978 13.7431 15.1345 13.7431C15.9307 13.7431 16.3154 14.3409 16.3154 15.0578C16.3154 15.8586 15.8056 17.0558 15.5424 18.1653C15.3225 19.0943 16.0083 19.8519 16.9245 19.8519C18.5834 19.8519 19.8585 18.1028 19.8585 15.5779C19.8585 13.3433 18.2527 11.7808 15.96 11.7808C13.3043 11.7808 11.7455 13.7727 11.7455 15.8312C11.7455 16.6334 12.0545 17.4935 12.4401 17.9611C12.5163 18.0535 12.5275 18.1346 12.5049 18.2288C12.4339 18.5237 12.2766 19.1576 12.2456 19.2873C12.2049 19.4581 12.1103 19.4944 11.9335 19.4121C10.7678 18.8695 10.039 17.1653 10.039 15.7964C10.039 12.8522 12.1781 10.1485 16.2058 10.1485C19.4436 10.1485 21.9597 12.4555 21.9597 15.5388C21.9597 18.7555 19.9316 21.3441 17.1165 21.3441C16.1708 21.3441 15.2817 20.8528 14.9774 20.2725C14.9774 20.2725 14.5093 22.0545 14.3959 22.4912C14.1851 23.3019 13.6163 24.3181 13.2358 24.9379C14.1092 25.2083 15.0372 25.3541 15.9993 25.3541C21.1541 25.3541 25.3327 21.1756 25.3327 16.0208C25.3327 10.8662 21.1541 6.6875 15.9993 6.6875Z" fill="#6D747A"/>
</g>
<defs>
<clipPath id="clip0_7239_113159">
<rect width="18.6667" height="18.6667" fill="white" transform="translate(6.66602 6.67188)"/>
</clipPath>
</defs>
</svg>
