<svg width="32" height="32" viewBox="0 0 32 32" fill="none" xmlns="http://www.w3.org/2000/svg">
<rect width="32" height="32" rx="16" fill="#EBEDF0"/>
<path d="M24.6088 11.6565C24.4021 10.8784 23.7933 10.2655 23.0201 10.0575C21.6189 9.67969 16 9.67969 16 9.67969C16 9.67969 10.381 9.67969 8.97969 10.0576C8.2066 10.2656 7.59773 10.8784 7.39109 11.6565C7.01562 13.0669 7.01562 16.0096 7.01562 16.0096C7.01562 16.0096 7.01562 18.9523 7.39109 20.3626C7.59773 21.1407 8.2066 21.728 8.97969 21.9361C10.381 22.3139 16 22.3139 16 22.3139C16 22.3139 21.6189 22.3139 23.0201 21.9361C23.7933 21.728 24.4021 21.1407 24.6088 20.3626C24.9843 18.9523 24.9843 16.0095 24.9843 16.0095C24.9843 16.0095 24.9843 13.0669 24.6088 11.6565Z" fill="#6D747A"/>
<path d="M14.1621 18.6794V13.3359L18.8585 16.0077L14.1621 18.6794Z" fill="#EBEDF0"/>
</svg>
